# xmcd CD database file
#
# Track frame offsets:
#	150
#	17807
#	36833
#	54341
#	73747
#	89936
#	108508
#	127597
#	145832
#	166655
#	183420
#	205971
#	225467
#	238455
#	258894
#	268432
#	307064
#
# Disc length: 4314 seconds
#
# Revision: 0
# Processed by: cddbd v1.5.1PL2 Copyright (c) Steve Scherf et al.
# Submitted via: CDex 1.51
#
DISCID=f810d811
DTITLE=すかんち - SWEETS SCANCH BEST COLLECTION
DYEAR=1900
DGENRE=ロック (一般)
TTITLE0=Mr. タンブリンマン
TTITLE1=恋のT.K.O.
TTITLE2=恋のショック療法
TTITLE3=恋の1,000,000＄マン
TTITLE4=恋のロマンティック・ブギ
TTITLE5=恋のマジックポーション
TTITLE6=恋のミラクルサマー
TTITLE7=ウルトラロケットマン
TTITLE8=恋はB・O・M・B・E・R
TTITLE9=星空のジュリエット
TTITLE10=好き好きダーリン
TTITLE11=恋するマリールー
TTITLE12=LOVE LOVE HOLIDAY
TTITLE13=君のいないRadio Station
TTITLE14=JAZZ
TTITLE15=魂の叫び
TTITLE16=Mr. ロックンローラー
EXTD=
EXTT0=
EXTT1=
EXTT2=
EXTT3=
EXTT4=
EXTT5=
EXTT6=
EXTT7=
EXTT8=
EXTT9=
EXTT10=
EXTT11=
EXTT12=
EXTT13=
EXTT14=
EXTT15=
EXTT16=
PLAYORDER=
